# xmcd CD database file
#
# Track frame offsets:
#	150
#	25136
#	51080
#	69847
#	89971
#	107845
#	124466
#	149531
#	172636
#	187455
#	198776
#	211731
#	226799
#	249607
#	266382
#	281617
#	302014
#	315942
#	328615
#	344306
#
# Disc length: 4791 seconds
#
# Revision: 0
# Processed by: cddbd v1.4PL0 Copyright (c) Steve Scherf et al.
# Submitted via: CDex 1.50
#
DISCID=2212b514
DTITLE=Various Artist - Kuschel Jazz
DYEAR=2003
DGENRE=Jazz
TTITLE0=Luther Vandros - Killing Me Softly
TTITLE1=Carmen Cuesta-Loeb -Dreams
TTITLE2=George Michael - Roxanne
TTITLE3=The Style Council and Tracy Thorn - The Paris Match
TTITLE4=Steve Tyrell - As Time Goes By
TTITLE5=Sade - Your Love Is King
TTITLE6=Oleta Adams - New York State Of Mind
TTITLE7=Chris Botti - Lisa
TTITLE8=Robbie Williams - Mr Bojangles
TTITLE9=Astrud Gilberto feat Stan Getz - Corcovado
TTITLE10=Andy Williams - The Look Of Love
TTITLE11=Patricia Kaas Un Homme Et Un Femme
TTITLE12=Till Bronner - Just The Way You Are
TTITLE13=Malia feat Eric Truffaz - Yellow Daffodils
TTITLE14=Simply Red - Every Time We Say Goodby
TTITLE15=Kenny G - Silhouette
TTITLE16=Alison Moyyet - That Ole Devil Called Love
TTITLE17=Dinah Washington - Mad About The Boy
TTITLE18=Nat King Cole - Unforgettable
TTITLE19=Tony Bennet and K D Lang - What A Wonderful World
EXTD=YEAR: 2003
EXTT0=
EXTT1=
EXTT2=
EXTT3=
EXTT4=
EXTT5=
EXTT6=
EXTT7=
EXTT8=
EXTT9=
EXTT10=
EXTT11=
EXTT12=
EXTT13=
EXTT14=
EXTT15=
EXTT16=
EXTT17=
EXTT18=
EXTT19=
PLAYORDER=
